<?xml version="1.0" encoding="UTF-8"?>
<svg width="1254px" height="400px" viewBox="0 0 1254 400" version="1.1" xmlns="http://www.w3.org/2000/svg" xmlns:xlink="http://www.w3.org/1999/xlink" style="background: #F5F5F5;">
    <!-- Generator: Sketch 43.1 (39012) - http://www.bohemiancoding.com/sketch -->
    <title>Banner</title>
    <desc>Created with Sketch.</desc>
    <defs>
        <linearGradient x1="48.9293328%" y1="4.01231264%" x2="48.9293328%" y2="98.9293328%" id="linearGradient-1">
            <stop stop-color="#E2EAF4" offset="0%"></stop>
            <stop stop-color="#E2EAF4" offset="52.6566146%"></stop>
            <stop stop-color="#CEDAE2" offset="52.718609%"></stop>
            <stop stop-color="#CEDAE2" offset="100%"></stop>
        </linearGradient>
        <linearGradient x1="100%" y1="109.153646%" x2="-2.18424479%" y2="2.18424479%" id="linearGradient-2">
            <stop stop-color="#E2EAF4" offset="0%"></stop>
            <stop stop-color="#E2EAF4" offset="52.6566146%"></stop>
            <stop stop-color="#CEDAE2" offset="52.718609%"></stop>
            <stop stop-color="#CEDAE2" offset="100%"></stop>
        </linearGradient>
        <linearGradient x1="14.5833333%" y1="110.595703%" x2="100%" y2="17.96875%" id="linearGradient-3">
            <stop stop-color="#E2EAF4" offset="0%"></stop>
            <stop stop-color="#E2EAF4" offset="52.6566146%"></stop>
            <stop stop-color="#CEDAE2" offset="52.718609%"></stop>
            <stop stop-color="#CEDAE2" offset="100%"></stop>
        </linearGradient>
        <linearGradient x1="0%" y1="54.3684896%" x2="50%" y2="0%" id="linearGradient-4">
            <stop stop-color="#E2EAF4" offset="0%"></stop>
            <stop stop-color="#E2EAF4" offset="52.6566146%"></stop>
            <stop stop-color="#CEDAE2" offset="52.718609%"></stop>
            <stop stop-color="#CEDAE2" offset="100%"></stop>
        </linearGradient>
        <linearGradient x1="50%" y1="122.450087%" x2="100%" y2="0%" id="linearGradient-5">
            <stop stop-color="#E2EAF4" offset="0%"></stop>
            <stop stop-color="#E2EAF4" offset="52.6566146%"></stop>
            <stop stop-color="#CEDAE2" offset="52.718609%"></stop>
            <stop stop-color="#CEDAE2" offset="100%"></stop>
        </linearGradient>
        <linearGradient x1="1.4708227%" y1="51.4708227%" x2="96.3878428%" y2="51.4708227%" id="linearGradient-6">
            <stop stop-color="#E2EAF4" offset="0%"></stop>
            <stop stop-color="#E2EAF4" offset="52.6566146%"></stop>
            <stop stop-color="#CEDAE2" offset="52.718609%"></stop>
            <stop stop-color="#CEDAE2" offset="100%"></stop>
        </linearGradient>
        <linearGradient x1="48.9293328%" y1="4.01231264%" x2="48.9293328%" y2="98.9293328%" id="linearGradient-7">
            <stop stop-color="#E2EAF4" offset="0%"></stop>
            <stop stop-color="#E2EAF4" offset="45.8389253%"></stop>
            <stop stop-color="#CEDAE2" offset="46.7981852%"></stop>
            <stop stop-color="#CEDAE2" offset="100%"></stop>
        </linearGradient>
        <linearGradient x1="100%" y1="108.156622%" x2="10.0219727%" y2="27.780878%" id="linearGradient-8">
            <stop stop-color="#E2EAF4" offset="0%"></stop>
            <stop stop-color="#E2EAF4" offset="52.6566146%"></stop>
            <stop stop-color="#CEDAE2" offset="52.718609%"></stop>
            <stop stop-color="#CEDAE2" offset="100%"></stop>
        </linearGradient>
        <linearGradient x1="1.4708227%" y1="51.4708227%" x2="96.3878428%" y2="51.4708227%" id="linearGradient-9">
            <stop stop-color="#E2EAF4" offset="0%"></stop>
            <stop stop-color="#CEDAE2" offset="50.2759448%"></stop>
            <stop stop-color="#E2EAF4" offset="50.9113235%"></stop>
            <stop stop-color="#CEDAE2" offset="100%"></stop>
        </linearGradient>
        <linearGradient x1="0%" y1="149.697266%" x2="0%" y2="-36.4453125%" id="linearGradient-10">
            <stop stop-color="#E2EAF4" offset="0%"></stop>
            <stop stop-color="#E2EAF4" offset="52.6566146%"></stop>
            <stop stop-color="#CEDAE2" offset="52.718609%"></stop>
            <stop stop-color="#CEDAE2" offset="100%"></stop>
        </linearGradient>
        <linearGradient x1="23.5708386%" y1="127.099609%" x2="23.5708386%" y2="-17.8320312%" id="linearGradient-11">
            <stop stop-color="#E2EAF4" offset="0%"></stop>
            <stop stop-color="#E2EAF4" offset="52.6566146%"></stop>
            <stop stop-color="#CEDAE2" offset="52.718609%"></stop>
            <stop stop-color="#CEDAE2" offset="100%"></stop>
        </linearGradient>
    </defs>
    <g id="Page-1" stroke="none" stroke-width="1" fill="none" fill-rule="evenodd">
        <g id="Banner">
            <rect id="bg" fill="#F5F5F5" x="0" y="0" width="1254" height="400"></rect>
            <g id="icons" transform="translate(23.000000, 22.000000)">
                <path d="M316,342 C329.807119,342 341,330 341,330 C341,330 329.807119,318 316,318 C302.192881,318 291,330 291,330 C291,330 302.192881,342 316,342 Z" id="Oval-4" fill="url(#linearGradient-1)"></path>
                <path d="M1169.59656,343.826815 C1183.40368,343.826815 1194.59656,331.826815 1194.59656,331.826815 C1194.59656,331.826815 1183.40368,319.826815 1169.59656,319.826815 C1155.78944,319.826815 1144.59656,331.826815 1144.59656,331.826815 C1144.59656,331.826815 1155.78944,343.826815 1169.59656,343.826815 Z" id="Oval-4-Copy-4" fill="url(#linearGradient-1)" transform="translate(1169.596557, 331.826815) rotate(-20.000000) translate(-1169.596557, -331.826815) "></path>
                <path d="M1039.86456,255.262224 C1053.67168,255.262224 1064.86456,243.262224 1064.86456,243.262224 C1064.86456,243.262224 1053.67168,231.262224 1039.86456,231.262224 C1026.05744,231.262224 1014.86456,243.262224 1014.86456,243.262224 C1014.86456,243.262224 1026.05744,255.262224 1039.86456,255.262224 Z" id="Oval-4-Copy-6" fill="url(#linearGradient-1)" transform="translate(1039.864562, 243.262224) rotate(-40.000000) translate(-1039.864562, -243.262224) "></path>
                <path d="M70,286 C83.8071187,286 95,274 95,274 C95,274 83.8071187,262 70,262 C56.1928813,262 45,274 45,274 C45,274 56.1928813,286 70,286 Z" id="Oval-4-Copy-3" fill="url(#linearGradient-1)" transform="translate(70.000000, 274.000000) rotate(20.000000) translate(-70.000000, -274.000000) "></path>
                <path d="M693.596557,353.826815 C707.403676,353.826815 718.596557,341.826815 718.596557,341.826815 C718.596557,341.826815 707.403676,329.826815 693.596557,329.826815 C679.789438,329.826815 668.596557,341.826815 668.596557,341.826815 C668.596557,341.826815 679.789438,353.826815 693.596557,353.826815 Z" id="Oval-4-Copy-5" fill="url(#linearGradient-1)" transform="translate(693.596557, 341.826815) rotate(20.000000) translate(-693.596557, -341.826815) "></path>
                <path d="M28,180.892305 C41.8071187,180.892305 53,168.892305 53,168.892305 C53,168.892305 41.8071187,156.892305 28,156.892305 C14.1928813,156.892305 3,168.892305 3,168.892305 C3,168.892305 14.1928813,180.892305 28,180.892305 Z" id="Oval-4-Copy-2" fill="url(#linearGradient-1)" transform="translate(28.000000, 168.892305) rotate(-30.000000) translate(-28.000000, -168.892305) "></path>
                <path d="M29.1629509,38.1629509 C42.9700696,38.1629509 54.1629509,26.1629509 54.1629509,26.1629509 C54.1629509,26.1629509 42.9700696,14.1629509 29.1629509,14.1629509 C15.3558322,14.1629509 4.1629509,26.1629509 4.1629509,26.1629509 C4.1629509,26.1629509 15.3558322,38.1629509 29.1629509,38.1629509 Z" id="Oval-4-Copy" fill="url(#linearGradient-1)" transform="translate(29.162951, 26.162951) rotate(45.000000) translate(-29.162951, -26.162951) "></path>
                <path d="M464,33 C464,24.7157288 470.713907,18 479,18 L479,18 C487.284271,18 494,24.7139073 494,33 L494,33 C494,41.2842712 487.286093,48 479,48 L464,48 L464,33 Z" id="Rectangle-6" fill="url(#linearGradient-2)"></path>
                <path d="M1013,347 C1013,338.715729 1019.71391,332 1028,332 L1028,332 C1036.28427,332 1043,338.713907 1043,347 L1043,347 C1043,355.284271 1036.28609,362 1028,362 L1013,362 L1013,347 Z" id="Rectangle-6-Copy-5" fill="url(#linearGradient-2)" transform="translate(1028.000000, 347.000000) scale(1, -1) translate(-1028.000000, -347.000000) "></path>
                <path d="M218,187 C218,178.715729 224.713907,172 233,172 L233,172 C241.284271,172 248,178.713907 248,187 L248,202 L233,202 C224.715729,202 218,195.286093 218,187 L218,187 Z" id="Rectangle-6-Copy-2" fill="url(#linearGradient-3)"></path>
                <path d="M979,36 C979,27.7157288 985.713907,21 994,21 L994,21 C1002.28427,21 1009,27.7139073 1009,36 L1009,51 L994,51 C985.715729,51 979,44.2860927 979,36 L979,36 Z" id="Rectangle-6-Copy-6" fill="url(#linearGradient-3)"></path>
                <path d="M861,187 C861,178.715729 867.713907,172 876,172 L876,172 C884.284271,172 891,178.713907 891,187 L891,202 L876,202 C867.715729,202 861,195.286093 861,187 L861,187 Z" id="Rectangle-6-Copy-4" fill="url(#linearGradient-3)" transform="translate(876.000000, 187.000000) scale(-1, 1) translate(-876.000000, -187.000000) "></path>
                <path d="M412,269 L427,269 C435.284271,269 442,275.713907 442,284 L442,284 C442,292.284271 435.286093,299 427,299 L427,299 C418.715729,299 412,292.286093 412,284 L412,269 Z" id="Rectangle-6-Copy-3" fill="url(#linearGradient-4)"></path>
                <path d="M120,337 C120,328.715729 126.713907,322 135,322 L150,322 L150,337 C150,345.284271 143.286093,352 135,352 L135,352 C126.715729,352 120,345.286093 120,337 L120,337 Z" id="Rectangle-6-Copy" fill="url(#linearGradient-2)"></path>
                <polygon id="Rectangle-9" fill="url(#linearGradient-5)" points="335.5 172 355 172 355 190 316 190"></polygon>
                <polygon id="Rectangle-9-Copy" fill="url(#linearGradient-5)" transform="translate(1034.000000, 117.500000) scale(1, -1) translate(-1034.000000, -117.500000) " points="1034 108.5 1053.5 108.5 1053.5 126.5 1014.5 126.5"></polygon>
                <path d="M287.159903,43.2141656 C286.422599,43.2234195 278.197779,43.1977789 272.606602,37.6066017 C266.748737,31.7487373 266,22 266,22 C266,22 275.748737,22.7487373 281.606602,28.6066017 C285.992638,32.9926377 286.953797,38.9993444 287.159903,41.740906 C287.366008,38.9993444 288.327167,32.9926377 292.713203,28.6066017 C298.571068,22.7487373 308.319805,22 308.319805,22 C308.319805,22 307.571068,31.7487373 301.713203,37.6066017 C296.122026,43.1977789 287.897206,43.2234195 287.159903,43.2141656 Z" id="Combined-Shape" fill="url(#linearGradient-6)"></path>
                <path d="M489.159903,353.214166 C488.422599,353.22342 480.197779,353.197779 474.606602,347.606602 C468.748737,341.748737 468,332 468,332 C468,332 477.748737,332.748737 483.606602,338.606602 C487.992638,342.992638 488.953797,348.999344 489.159903,351.740906 C489.366008,348.999344 490.327167,342.992638 494.713203,338.606602 C500.571068,332.748737 510.319805,332 510.319805,332 C510.319805,332 509.571068,341.748737 503.713203,347.606602 C498.122026,353.197779 489.897206,353.22342 489.159903,353.214166 Z" id="Combined-Shape-Copy-2" fill="url(#linearGradient-6)"></path>
                <path d="M365,94.7968101 C365,93.2521745 366.258544,92 367.797036,92 L406.647409,92 C408.192169,92 409.444444,93.2504009 409.444444,94.7968101 L409.444444,123.20319 C409.444444,124.747825 408.185901,126 406.647409,126 L367.797036,126 C366.252275,126 365,124.749599 365,123.20319 L365,94.7968101 Z M369.166667,97.6573134 L369.166667,120.342687 C369.166667,121.119659 369.790545,121.75 370.560138,121.75 L403.884306,121.75 C404.651002,121.75 405.277778,121.119924 405.277778,120.342687 L405.277778,97.6573134 C405.277778,96.8803406 404.653899,96.25 403.884306,96.25 L370.560138,96.25 C369.793443,96.25 369.166667,96.8800757 369.166667,97.6573134 Z M409.444444,99.0833333 L412.222222,99.0833333 C413.756347,99.0833333 415,100.323997 415,101.861957 L415,116.138043 C415,117.672635 413.753225,118.916667 412.222222,118.916667 L409.444444,118.916667 L409.444444,99.0833333 Z M371.944444,99.0833333 L377.5,99.0833333 L377.5,118.916667 L371.944444,118.916667 L371.944444,99.0833333 Z M380.277778,99.0833333 L385.833333,99.0833333 L385.833333,118.916667 L380.277778,118.916667 L380.277778,99.0833333 Z M388.611111,99.0833333 L394.166667,99.0833333 L394.166667,118.916667 L388.611111,118.916667 L388.611111,99.0833333 Z" id="Combined-Shape" fill="url(#linearGradient-7)"></path>
                <path d="M762.240376,136.404754 C766.521865,134.266116 771.367588,133.060495 776.5,133.060495 C781.632501,133.060495 786.478302,134.266158 790.759846,136.404865 L797.379392,129.785318 C798.435532,128.729179 800.14862,128.729927 801.20089,129.782197 C802.255306,130.836613 802.250803,132.55066 801.197769,133.603695 L795.489248,139.312216 C803.089478,144.960773 808,153.917133 808,164 C808,164 745,164 745,164 C745,153.917049 749.910604,144.960624 757.510943,139.312074 L751.802563,133.603695 C750.749529,132.55066 750.745026,130.836613 751.799442,129.782197 C752.851712,128.729927 754.5648,128.729179 755.62094,129.785318 L762.240376,136.404754 Z M764.8,154.397112 C766.291169,154.397112 767.5,153.209874 767.5,151.745342 C767.5,150.28081 766.291169,149.093572 764.8,149.093572 C763.308831,149.093572 762.1,150.28081 762.1,151.745342 C762.1,153.209874 763.308831,154.397112 764.8,154.397112 Z M788.2,154.397112 C789.691169,154.397112 790.9,153.209874 790.9,151.745342 C790.9,150.28081 789.691169,149.093572 788.2,149.093572 C786.708831,149.093572 785.5,150.28081 785.5,151.745342 C785.5,153.209874 786.708831,154.397112 788.2,154.397112 Z" id="Combined-Shape" fill="url(#linearGradient-6)"></path>
                <path d="M927,106 L895,106 C892.8,106 891,107.8 891,110 L891,130 C891,132.2 892.8,134 895,134 L927,134 C929.2,134 931,132.2 931,130 L931,110 C931,107.8 929.2,106 927,106 L927,106 Z M909,112 L913,112 L913,116 L909,116 L909,112 L909,112 Z M909,118 L913,118 L913,122 L909,122 L909,118 L909,118 Z M903,112 L907,112 L907,116 L903,116 L903,112 L903,112 Z M903,118 L907,118 L907,122 L903,122 L903,118 L903,118 Z M901,122 L897,122 L897,118 L901,118 L901,122 L901,122 Z M901,116 L897,116 L897,112 L901,112 L901,116 L901,116 Z M919,130 L903,130 L903,126 L919,126 L919,130 L919,130 Z M919,122 L915,122 L915,118 L919,118 L919,122 L919,122 Z M919,116 L915,116 L915,112 L919,112 L919,116 L919,116 Z M925,122 L921,122 L921,118 L925,118 L925,122 L925,122 Z M925,116 L921,116 L921,112 L925,112 L925,116 L925,116 Z" id="Shape" fill="url(#linearGradient-2)"></path>
                <path d="M588.193114,311 C581.068114,311 574.418114,313.4 569.193114,317.4 L588.193114,343 L607.193114,317.4 C601.968114,313.4 595.318114,311 588.193114,311 L588.193114,311 Z M588.193114,319.48 C584.076448,319.48 580.276448,320.6 576.951448,322.52 L573.784781,318.2 C578.059781,315.64 582.968114,314.2 588.193114,314.2 C593.418114,314.2 598.326448,315.64 602.601448,318.2 L599.434781,322.52 C596.109781,320.6 592.309781,319.48 588.193114,319.48 L588.193114,319.48 Z" id="Shape-Copy" fill="url(#linearGradient-6)"></path>
                <path d="M1131,56 C1134.10588,56 1136.64706,53.48 1136.64706,50.4 L1125.35294,50.4 C1125.35294,53.48 1127.89412,56 1131,56 L1131,56 Z M1149.35294,39.2 L1149.35294,23.8 C1149.35294,15.12 1143.42353,8.12 1135.23529,6.16 L1135.23529,4.2 C1135.23529,1.96 1133.25882,0 1131,0 C1128.74118,0 1126.76471,1.96 1126.76471,4.2 L1126.76471,6.16 C1118.57647,8.12 1112.64706,15.12 1112.64706,23.8 L1112.64706,39.2 L1107,44.8 L1107,47.6 L1155,47.6 L1155,44.8 L1149.35294,39.2 L1149.35294,39.2 Z" id="Shape" fill="url(#linearGradient-6)"></path>
                <path d="M133,178 C123.528571,178 116,185.44 116,194.8 C116,207.28 133,226 133,226 C133,226 150,207.28 150,194.8 C150,185.44 142.471429,178 133,178 L133,178 Z M133,200.8 C129.6,200.8 126.928571,198.16 126.928571,194.8 C126.928571,191.44 129.6,188.8 133,188.8 C136.4,188.8 139.071429,191.44 139.071429,194.8 C139.071429,198.16 136.4,200.8 133,200.8 L133,200.8 Z" id="Shape" fill="url(#linearGradient-6)"></path>
                <path d="M114,57 L126,57 L129.6,61 L136,61 C138.2,61 140,62.8 140,65 L140,89 C140,91.2 138.2,93 136,93 L104,93 C101.8,93 100,91.2 100,89 L100,65 C100,62.8 101.8,61 104,61 L110.4,61 L114,57 Z M120,87 C125.6,87 130,82.6 130,77 C130,71.4 125.6,67 120,67 C114.4,67 110,71.4 110,77 C110,82.6 114.4,87 120,87 Z M120,83 C116.686292,83 114,80.3137085 114,77 C114,73.6862915 116.686292,71 120,71 C123.313708,71 126,73.6862915 126,77 C126,80.3137085 123.313708,83 120,83 Z" id="Combined-Shape" fill="url(#linearGradient-2)"></path>
                <path d="M234.375,264.666667 L231.5625,264.666667 L231.5625,259.047619 C231.5625,251.180952 225.375,245 217.5,245 C209.625,245 203.4375,251.180952 203.4375,259.047619 L203.4375,264.666667 L200.625,264.666667 C197.53125,264.666667 195,267.195238 195,270.285714 L195,298.380952 C195,301.471429 197.53125,304 200.625,304 L234.375,304 C237.46875,304 240,301.471429 240,298.380952 L240,270.285714 C240,267.195238 237.46875,264.666667 234.375,264.666667 L234.375,264.666667 Z M217.5,289.952381 C214.40625,289.952381 211.875,287.42381 211.875,284.333333 C211.875,281.242857 214.40625,278.714286 217.5,278.714286 C220.59375,278.714286 223.125,281.242857 223.125,284.333333 C223.125,287.42381 220.59375,289.952381 217.5,289.952381 L217.5,289.952381 Z M226.21875,264.666667 L208.78125,264.666667 L208.78125,259.047619 C208.78125,254.271429 212.71875,250.338095 217.5,250.338095 C222.28125,250.338095 226.21875,254.271429 226.21875,259.047619 L226.21875,264.666667 L226.21875,264.666667 Z" id="Shape" fill="url(#linearGradient-8)"></path>
                <path d="M240.2,99.6 C243,105.2 247.8,109.8 253.4,112.8 L257.8,108.4 C258.4,107.8 259.2,107.6 259.8,108 C262,108.8 264.4,109.2 267,109.2 C268.2,109.2 269,110 269,111.2 L269,118 C269,119.2 268.2,120 267,120 C248.2,120 233,104.8 233,86 C233,84.8 233.8,84 235,84 L242,84 C243.2,84 244,84.8 244,86 C244,88.4 244.4,90.8 245.2,93.2 C245.4,93.8 245.2,94.6 244.8,95.2 L240.2,99.6 L240.2,99.6 Z" id="Shape" fill="url(#linearGradient-2)"></path>
                <path d="M931.989845,294.8 C931.989845,293.96 932.269845,293.12 932.269845,292 C932.269845,290.88 932.269845,290.04 931.989845,289.2 L937.869845,284.44 C938.429845,283.88 938.429845,283.32 938.149845,282.76 L932.549845,272.96 C932.269845,272.68 931.709845,272.4 930.869845,272.68 L923.869845,275.48 C922.469845,274.36 920.789845,273.52 919.109845,272.68 L917.989845,265.4 C918.269845,264.56 917.429845,264 916.869845,264 L905.669845,264 C905.109845,264 904.269845,264.56 904.269845,265.12 L903.149845,272.68 C901.469845,273.24 900.069845,274.36 898.389845,275.48 L891.669845,272.68 C890.829845,272.4 890.269845,272.68 889.709845,273.24 L884.109845,283.04 C883.829845,283.32 884.109845,284.16 884.669845,284.72 L890.549845,289.2 C890.549845,290.04 890.269845,290.88 890.269845,292 C890.269845,293.12 890.269845,293.96 890.549845,294.8 L884.669845,299.56 C884.109845,300.12 884.109845,300.68 884.389845,301.24 L889.989845,311.04 C890.269845,311.32 890.829845,311.6 891.669845,311.32 L898.669845,308.52 C900.069845,309.64 901.749845,310.48 903.429845,311.32 L904.549845,318.6 C904.549845,319.16 905.109845,319.72 905.949845,319.72 L917.149845,319.72 C917.709845,319.72 918.549845,319.16 918.549845,318.6 L919.669845,311.32 C921.349845,310.48 923.029845,309.64 924.429845,308.52 L931.429845,311.32 C931.989845,311.6 932.829845,311.32 933.109845,310.76 L938.709845,300.96 C938.989845,300.4 938.989845,299.56 938.429845,299.28 L931.989845,294.8 L931.989845,294.8 Z M911.269845,301.8 C905.949845,301.8 901.469845,297.32 901.469845,292 C901.469845,286.68 905.949845,282.2 911.269845,282.2 C916.589845,282.2 921.069845,286.68 921.069845,292 C921.069845,297.32 916.589845,301.8 911.269845,301.8 L911.269845,301.8 Z" id="Shape" fill="url(#linearGradient-9)"></path>
                <path d="M461,178 C461,176.6 460.2,175.4 459.2,174.6 L441,164 L422.8,174.6 C421.8,175.4 421,176.6 421,178 L421,198 C421,200.2 422.8,202 425,202 L457,202 C459.2,202 461,200.2 461,198 L461,178 L461,178 Z M441,188 L424.4,177.6 L441,168 L457.6,177.6 L441,188 L441,188 Z" id="Shape" fill="url(#linearGradient-6)"></path>
                <polygon id="Shape" fill="url(#linearGradient-2)" points="965 193 983 193 983 211 985 211 1001 175 965 191"></polygon>
                <path d="M804,245 L784,245 C781.8,245 780,246.8 780,249 L780,285 C780,287.2 781.8,289 784,289 L804,289 C806.2,289 808,287.2 808,285 L808,249 C808,246.8 806.2,245 804,245 L804,245 Z M804,281 L784,281 L784,253 L804,253 L804,281 L804,281 Z" id="Shape" fill="url(#linearGradient-2)"></path>
                <path d="M651.183333,20.25 C649.841667,13.875 644.091667,9 637,9 C631.441667,9 626.65,12 624.35,16.5 C618.408333,17.25 614,21.9375 614,27.75 C614,33.9375 619.175,39 625.5,39 L650.416667,39 C655.783333,39 660,34.875 660,29.625 C660,24.75 655.975,20.625 651.183333,20.25 L651.183333,20.25 Z" id="Shape" fill="url(#linearGradient-2)"></path>
                <path d="M804,20 L772,20 C769.8,20 768,21.8 768,24 L768,48 C768,50.2 769.8,52 772,52 L804,52 C806.2,52 808,50.2 808,48 L808,24 C808,21.8 806.2,20 804,20 L804,20 Z M800,44 L792,37.6 L792,44 L776,44 L776,28 L792,28 L792,34.4 L800,28 L800,44 L800,44 Z" id="Shape" fill="url(#linearGradient-1)"></path>
                <path d="M1154,238 C1152.4,238 1151,238.6 1150,239.6 L1135.8,231.4 C1136,231 1136,230.4 1136,230 C1136,226.6 1133.4,224 1130,224 C1126.6,224 1124,226.6 1124,230 C1124,233.4 1126.6,236 1130,236 C1131.6,236 1133,235.4 1134,234.4 L1148.2,242.6 C1148,243 1148,243.6 1148,244 C1148,244.4 1148,245 1148.2,245.4 L1134,253.8 C1133,252.8 1131.6,252.2 1130,252.2 C1126.8,252.2 1124.2,254.8 1124.2,258 C1124.2,261.2 1126.8,263.8 1130,263.8 C1133.2,263.8 1135.8,261.2 1135.8,258 C1135.8,257.6 1135.8,257.2 1135.6,256.6 L1149.8,248.2 C1150.8,249.2 1152.2,249.8 1153.8,249.8 C1157.2,249.8 1159.8,247.2 1159.8,243.8 C1159.8,240.4 1157.4,238 1154,238 L1154,238 Z" id="Shape" fill="url(#linearGradient-10)"></path>
                <path d="M340,234 C329,234 320,243 320,254 C320,265 329,274 340,274 C351,274 360,265 360,254 C360,243 351,234 340,234 L340,234 Z M353.8,246 L348,246 C347.4,243.4 346.4,241.2 345.2,238.8 C348.8,240.2 352,242.6 353.8,246 L353.8,246 Z M340,238 C341.6,240.4 343,243 343.8,246 L336.2,246 C337,243.2 338.4,240.4 340,238 L340,238 Z M324.6,258 C324.2,256.8 324,255.4 324,254 C324,252.6 324.2,251.2 324.6,250 L331.4,250 C331.2,251.4 331.2,252.6 331.2,254 C331.2,255.4 331.4,256.6 331.4,258 L324.6,258 L324.6,258 Z M326.2,262 L332,262 C332.6,264.6 333.6,266.8 334.8,269.2 C331.2,267.8 328,265.4 326.2,262 L326.2,262 Z M332,246 L326.2,246 C328.2,242.6 331.2,240.2 334.8,238.8 C333.6,241.2 332.6,243.4 332,246 L332,246 Z M340,270 C338.4,267.6 337,265 336.2,262 L343.8,262 C343,264.8 341.6,267.6 340,270 L340,270 Z M344.6,258 L335.4,258 C335.2,256.6 335,255.4 335,254 C335,252.6 335.2,251.4 335.4,250 L344.8,250 C345,251.4 345.2,252.6 345.2,254 C345.2,255.4 344.8,256.6 344.6,258 L344.6,258 Z M345.2,269.2 C346.4,267 347.4,264.6 348,262 L353.8,262 C352,265.4 348.8,267.8 345.2,269.2 L345.2,269.2 Z M348.8,258 C349,256.6 349,255.4 349,254 C349,252.6 348.8,251.4 348.8,250 L355.6,250 C356,251.2 356.2,252.6 356.2,254 C356.2,255.4 356,256.8 355.6,258 L348.8,258 L348.8,258 Z" id="Shape" fill="url(#linearGradient-6)"></path>
                <path d="M1130,160 L1120,160 L1120,170 L1130,170 L1130,160 L1130,160 Z M1128,138 L1128,142 L1112,142 L1112,138 L1108,138 L1108,142 L1106,142 C1103.8,142 1102,143.8 1102,146 L1102,174 C1102,176.2 1103.8,178 1106,178 L1134,178 C1136.2,178 1138,176.2 1138,174 L1138,146 C1138,143.8 1136.2,142 1134,142 L1132,142 L1132,138 L1128,138 L1128,138 Z M1134,174 L1106,174 L1106,152 L1134,152 L1134,174 L1134,174 Z" id="Shape" fill="url(#linearGradient-11)"></path>
                <path d="M887,60 C890.4,60 893,57.4 893,54 L893,42 C893,38.6 890.4,36 887,36 C883.6,36 881,38.6 881,42 L881,54 C881,57.4 883.6,60 887,60 L887,60 Z M897.6,54 C897.6,60 892.6,64.2 887,64.2 C881.4,64.2 876.4,60 876.4,54 L873,54 C873,60.8 878.4,66.4 885,67.4 L885,74 L889,74 L889,67.4 C895.6,66.4 901,60.8 901,54 L897.6,54 L897.6,54 Z" id="Shape" fill="url(#linearGradient-6)"></path>
            </g>
        </g>
    </g>
</svg>