<?xml version="1.0" encoding="UTF-8"?>
<svg width="14px" height="24px" viewBox="0 0 14 24" version="1.1" xmlns="http://www.w3.org/2000/svg" xmlns:xlink="http://www.w3.org/1999/xlink">
    <!-- Generator: Sketch 43.2 (39069) - http://www.bohemiancoding.com/sketch -->
    <title>Group 11 Copy</title>
    <desc>Created with Sketch.</desc>
    <defs>
        <linearGradient x1="90.3741003%" y1="68.1977689%" x2="78.6044912%" y2="68.1977699%" id="linearGradient-1">
            <stop stop-color="#5EC1F9" offset="0%"></stop>
            <stop stop-color="#5EB8F9" offset="100%"></stop>
        </linearGradient>
    </defs>
    <g id="Page-8" stroke="none" stroke-width="1" fill="none" fill-rule="evenodd">
        <g id="Group-11-Copy">
            <path d="M1.05150398,22.1551679 C1.03195862,22.1596198 1.0127964,22.1629855 0.994035935,22.1652189 L2.82392352,23.949993 C4.58300971,23.7881139 6.30554513,23.3253584 7.57359805,22.866701 C8.84165097,22.4080436 9.88575549,21.8171937 10.7059429,21.0941338 C11.5261303,20.3710738 12.1331678,19.5023357 12.5270736,18.4878933 C12.9209794,17.473451 13.1179294,16.3025431 13.1179294,14.9751345 L13.1179294,11.3652487 L13.1179294,8.41906387 C13.1179294,6.94056812 13.1233253,5.65904449 13.1341172,4.57445455 C13.1449092,3.4898646 13.150305,2.51051076 13.150305,1.63636364 L11.1048505,0.00361764438 C11.1048356,0.8768489 11.0994397,1.8549969 11.0886627,2.93809091 C11.0778707,4.02268086 11.0724748,5.30420448 11.0724748,6.78270023 L11.0724748,9.72888506 L11.0724748,13.3387709 C11.0724748,14.6661795 10.8755249,15.8370874 10.4816191,16.8515297 C10.0877133,17.865972 9.48067579,18.7347102 8.66048836,19.4577701 C7.84030094,20.1808301 6.79619643,20.7716799 5.52814351,21.2303374 C4.27550622,21.6834189 2.78330764,21.9916928 1.05150398,22.1551679 Z" id="Combined-Shape" fill="url(#linearGradient-1)"></path>
            <path d="M11.1048505,0 C11.1048505,0.874147121 11.0994546,1.85350096 11.0886627,2.93809091 C11.0778707,4.02268086 11.0724748,5.30420448 11.0724748,6.78270023 L11.0724748,9.72888506 L11.0724748,13.3387709 C11.0724748,14.6661795 10.8755249,15.8370874 10.4816191,16.8515297 C10.0877133,17.865972 9.48067579,18.7347102 8.66048836,19.4577701 C7.84030094,20.1808301 6.79619643,20.7716799 5.52814351,21.2303374 C4.26009058,21.6889948 2.74654373,21.9992584 0.987457552,22.1611375 L-2.84217094e-14,17.9199264 C0.906522941,17.812007 1.69971862,17.6690159 2.37961082,17.4909489 C3.05950303,17.3128819 3.65305081,17.0295978 4.16027198,16.6410879 C4.69986897,16.2202023 5.10725858,15.6914052 5.38245305,15.0546807 C5.65764751,14.4179563 5.79524268,13.5761976 5.79524268,12.5293794 C5.79524268,11.6876081 5.79794062,10.7999844 5.80333659,9.8664816 C5.80873256,8.93297881 5.81143051,7.96981263 5.81143051,6.97695418 C5.81143051,5.25024381 5.80333668,3.87699008 5.78714877,2.85715177 C5.77096086,1.83731346 5.75747113,0.884939061 5.74667919,0 L11.1048505,0 Z" id="J-Copy-3" fill="#FFFFFF"></path>
        </g>
    </g>
</svg>